<svg width="28" height="28" viewBox="0 0 28 28" fill="none" xmlns="http://www.w3.org/2000/svg">
<path fill-rule="evenodd" clip-rule="evenodd" d="M3.41553 11.8385C3.41553 16.3261 6.79788 20.836 13.5626 25.3679C20.3273 20.836 23.7097 16.3261 23.7097 11.8385C23.7097 6.2344 19.1667 1.69141 13.5626 1.69141C7.95852 1.69141 3.41553 6.2344 3.41553 11.8385ZM13.5626 3.3826C18.2326 3.3826 22.0185 7.16843 22.0185 11.8385C22.0185 15.4489 19.2678 19.2998 13.5626 23.3166C7.85739 19.2998 5.1067 15.4489 5.1067 11.8385C5.1067 7.16843 8.89253 3.3826 13.5626 3.3826Z" fill="#3F3E3E"/>
<path fill-rule="evenodd" clip-rule="evenodd" d="M9.0528 11.8384C9.0528 14.3291 11.0719 16.3482 13.5626 16.3482C16.0533 16.3482 18.0724 14.3291 18.0724 11.8384C18.0724 9.34772 16.0533 7.32861 13.5626 7.32861C11.0719 7.32861 9.0528 9.34772 9.0528 11.8384ZM16.3813 11.8384C16.3813 13.3951 15.1193 14.6571 13.5626 14.6571C12.006 14.6571 10.744 13.3951 10.744 11.8384C10.744 10.2817 12.006 9.0198 13.5626 9.0198C15.1193 9.0198 16.3813 10.2817 16.3813 11.8384Z" fill="#3F3E3E"/>
</svg>
